HIERARCHY
ROOT Hips
{
	OFFSET -3.958830 18.904000 13.208200
	CHANNELS 6 Xposition Yposition Zposition Zrotation Yrotation Xrotation 
	JOINT LHipJoint
	{
		OFFSET 0.000000 0.000000 0.000000
		CHANNELS 3 Zrotation Yrotation Xrotation
		JOINT LeftUpLeg
		{
			OFFSET 1.800000 -1.400000 0.085000
			CHANNELS 3 Zrotation Yrotation Xrotation
			JOINT LeftLeg
			{
				OFFSET 2.215000 -6.000000 0.000000
				CHANNELS 3 Zrotation Yrotation Xrotation
				JOINT LeftFoot
				{
					OFFSET 2.500000 -6.900000 0.000000
					CHANNELS 3 Zrotation Yrotation Xrotation
					JOINT LeftToeBase
					{
						OFFSET 0.200000 -0.500000 1.950000
						CHANNELS 3 Zrotation Yrotation Xrotation
						End Site
						{
							OFFSET 0.000000 0.000000 0.000000
						}
					}
				}
			}
		}
	}
	JOINT RHipJoint
	{
		OFFSET 0.000000 0.000000 0.000000
		CHANNELS 3 Zrotation Yrotation Xrotation
		JOINT RightUpLeg
		{
			OFFSET -1.800000 -1.400000 0.085000
			CHANNELS 3 Zrotation Yrotation Xrotation
			JOINT RightLeg
			{
				OFFSET -2.215000 -6.000000 0.000000
				CHANNELS 3 Zrotation Yrotation Xrotation
				JOINT RightFoot
				{
					OFFSET -2.500000 -6.900000 0.000000
					CHANNELS 3 Zrotation Yrotation Xrotation
					JOINT RightToeBase
					{
						OFFSET -0.200000 -0.500000 1.950000
						CHANNELS 3 Zrotation Yrotation Xrotation
						End Site
						{
							OFFSET 0.000000 0.000000 0.000000
						}
					}
				}
			}
		}
	}
	JOINT LowerBack
	{
		OFFSET 0.000000 0.000000 0.000000
		CHANNELS 3 Zrotation Yrotation Xrotation
		JOINT Spine
		{
			OFFSET -0.087000 1.940000 -0.288900
			CHANNELS 3 Zrotation Yrotation Xrotation
			JOINT Spine1
			{
				OFFSET 0.000000 1.950000 0.060000
				CHANNELS 3 Zrotation Yrotation Xrotation
				JOINT Neck
				{
					OFFSET 0.000000 0.000000 0.000000
					CHANNELS 3 Zrotation Yrotation Xrotation
					JOINT Neck1
					{
						OFFSET 0.000000 1.600000 0.340000
						CHANNELS 3 Zrotation Yrotation Xrotation
						JOINT Head
						{
							OFFSET 0.000000 1.667000 -0.240000
							CHANNELS 3 Zrotation Yrotation Xrotation
							End Site
							{
								OFFSET 0.000000 0.000000 0.000000
							}
						}
					}
				}
				JOINT LeftShoulder
				{
					OFFSET 0.000000 0.000000 0.000000
					CHANNELS 3 Zrotation Yrotation Xrotation
					JOINT LeftArm
					{
						OFFSET 2.700000 1.550000 -0.730000
						CHANNELS 3 Zrotation Yrotation Xrotation
						JOINT LeftForeArm
						{
							OFFSET 5.450000 0.000000 0.000000
							CHANNELS 3 Zrotation Yrotation Xrotation
							JOINT LeftHand
							{
								OFFSET 3.450000 0.000000 0.000000
								CHANNELS 3 Zrotation Yrotation Xrotation
								JOINT LeftHandIndex1
								{
									OFFSET 0.750000 0.000000 0.000000
									CHANNELS 3 Zrotation Yrotation Xrotation
									End Site
									{
										OFFSET 0.000000 0.000000 0.000000
									}
								}
							}
						}
					}
				}
				JOINT RightShoulder
				{
					OFFSET 0.000000 0.000000 0.000000
					CHANNELS 3 Zrotation Yrotation Xrotation
					JOINT RightArm
					{
						OFFSET -2.700000 1.550000 -0.730000
						CHANNELS 3 Zrotation Yrotation Xrotation
						JOINT RightForeArm
						{
							OFFSET -5.450000 0.000000 0.000000
							CHANNELS 3 Zrotation Yrotation Xrotation
							JOINT RightHand
							{
								OFFSET -3.450000 0.000000 0.000000
								CHANNELS 3 Zrotation Yrotation Xrotation
								JOINT RightHandIndex1
								{
									OFFSET -0.750000 0.000000 0.000000
									CHANNELS 3 Zrotation Yrotation Xrotation
									End Site
									{
										OFFSET 0.000000 0.000000 0.000000
									}
								}
							}
						}
					}
				}
			}
		}
	}
}
MOTION
Frames: 9
Frame Time: 0.016667
1.283730 17.236560 -9.115170 5.322393 -9.197155 -3.880419 -14.371838 12.269533 3.633438 -4.257998 -1.832138 -8.145235 -19.557737 9.285908 15.154341 0.090124 5.134468 2.714444 0.142730 0.099070 0.045970 18.997481 -12.359779 1.938004 -8.794976 0.762719 -17.428031 -6.303197 -4.184949 33.045332 -0.407551 -4.553318 2.666626 0.000880 -0.014000 0.053030 -5.662780 1.700866 -7.042630 35.241965 -11.378684 9.232789 -36.626366 -3.534149 11.203949 13.606412 -5.337301 -9.222233 -11.199894 7.938857 51.745468 -5.763130 0.690550 -8.323060 -18.283390 0.283234 1.955584 -45.262884 6.305633 -10.106366 -13.647034 -25.661070 0.695105 -3.413821 3.025532 0.406460 -0.090490 0.099160 -0.032140 -10.266013 3.359149 8.007247 3.750713 -10.011223 -7.325915 -32.553642 86.184746 -26.402500 1.843960 -1.827636 -0.049700 0.182380 0.166970 -0.100780 
1.288140 17.233250 -9.113440 5.439880 -8.787773 -4.096251 -14.383304 12.290953 3.634930 -4.477914 -1.795015 -7.837528 -19.353563 9.242291 15.200321 0.080668 5.128837 2.711303 0.151740 0.105600 0.058780 18.988577 -12.347139 1.919021 -9.123913 0.745845 -17.614141 -6.236330 -4.345886 33.900864 -0.430544 -4.664735 2.614973 0.006240 -0.028540 0.054310 -5.637164 1.623267 -7.044124 34.968015 -11.499075 9.325353 -36.305709 -3.586002 11.441812 13.503008 -5.214733 -9.379342 -11.134603 7.774323 51.853052 -5.782410 0.692500 -8.684110 -18.037288 0.190548 1.943565 -45.494325 6.216650 -10.193399 -14.292748 -25.884667 0.770068 -3.407380 3.025664 0.419660 -0.099890 0.108540 -0.036750 -10.265334 3.214410 8.288045 3.258105 -9.738080 -6.503347 -21.364713 82.370548 -15.895988 1.914394 -2.063419 -0.050740 0.178660 0.164370 -0.109460 
1.297520 17.235930 -9.101970 5.189800 -7.955743 -4.370049 -14.390380 12.326377 3.621005 -4.493608 -1.842334 -7.530180 -18.809519 9.190245 15.624274 0.076420 5.124380 2.716960 0.156230 0.103550 0.066710 18.978265 -12.362232 1.886825 -9.494871 0.456905 -16.930373 -5.516700 -4.756314 33.667782 -0.437659 -4.688426 2.613847 0.005600 -0.037050 0.042450 -5.615055 1.553639 -7.029536 35.501676 -11.721689 9.171229 -36.222267 -3.638170 11.531193 13.449685 -5.177386 -9.672668 -11.374756 7.534685 52.347869 -5.445840 0.326340 -8.583670 -18.019646 -0.178444 2.143149 -45.583597 6.558943 -10.431566 -15.402570 -26.547638 0.952334 -3.379730 3.028831 0.433060 -0.112080 0.112250 -0.033890 -10.159013 3.547003 8.513061 2.639626 -9.557925 -6.006240 -14.804423 76.076647 -9.010149 1.955337 -2.124377 -0.057700 0.184830 0.156580 -0.115840 
1.312960 17.236040 -9.099300 4.798265 -8.387561 -4.359697 -14.384333 12.339450 3.620695 -4.459240 -1.973239 -7.797873 -18.404624 9.146161 16.034942 0.062244 5.092892 2.723419 0.164210 0.105020 0.080640 18.972729 -12.381738 1.907210 -9.520159 0.402998 -16.569545 -5.068061 -4.864518 32.761611 -0.426755 -4.585691 2.651967 0.004060 -0.050910 0.038920 -5.608435 1.571344 -7.042484 36.343754 -11.484690 9.453688 -36.084667 -3.157344 11.199133 13.550571 -5.113115 -9.916028 -11.444233 7.152397 52.761175 -5.266990 0.018700 -8.688170 -18.332800 -0.462059 2.149940 -45.658159 6.639069 -10.534536 -16.147792 -26.793091 1.042598 -3.360817 3.030726 0.446260 -0.123690 0.119430 -0.036950 -10.031614 4.010377 8.677722 1.891088 -9.025793 -5.609276 -12.640366 67.907560 -5.595651 1.985150 -2.095926 -0.057670 0.182250 0.150540 -0.123810 
1.328650 17.234630 -9.090520 4.387193 -8.421989 -4.503977 -14.384138 12.369621 3.616923 -4.418159 -1.995434 -7.687610 -17.999130 9.071295 16.210769 0.066055 5.048139 2.737010 0.168220 0.111190 0.088690 18.961357 -12.393341 1.918731 -9.750764 0.287158 -16.100661 -4.301216 -5.150716 32.136444 -0.424053 -4.540374 2.669826 0.001030 -0.069200 0.028010 -5.587757 1.537368 -7.059163 37.151185 -11.308334 9.753369 -35.943386 -2.739197 10.849399 13.670622 -5.015685 -10.282262 -11.555779 6.666070 53.226472 -5.065860 -0.431160 -8.631800 -18.723346 -0.839471 2.179257 -45.593665 6.776224 -10.679633 -16.984728 -27.273501 1.201419 -3.330028 3.041054 0.450270 -0.139770 0.128200 -0.038980 -9.881964 4.619156 9.005745 1.171992 -8.578193 -5.106489 -10.884336 59.421776 -3.120988 2.018305 -2.051622 -0.052400 0.178610 0.140330 -0.125320 
1.341530 17.231490 -9.079750 4.276182 -8.172100 -4.689118 -14.393019 12.398056 3.609254 -4.628074 -1.962420 -7.386394 -17.540117 8.980414 16.361254 0.065865 5.016668 2.756521 0.170280 0.108040 0.082650 18.950289 -12.385350 1.911047 -10.225737 0.229690 -15.974710 -3.650580 -5.493899 32.312842 -0.440546 -4.588777 2.652520 -0.005640 -0.071160 0.018840 -5.560890 1.451610 -7.057364 37.714607 -11.265018 9.832343 -35.965295 -2.443661 10.663748 13.609945 -5.267624 -10.887675 -12.666516 6.611304 53.567454 -4.347360 -1.212680 -8.669750 -18.680865 -1.256058 2.303909 -45.938860 7.062543 -11.002126 -17.382464 -27.936719 1.246747 -3.298762 3.040590 0.470110 -0.159290 0.135770 -0.029020 -9.790254 5.532943 9.459694 0.377941 -8.079522 -4.587425 -9.403245 50.546883 -1.300579 2.035166 -1.977074 -0.056180 0.189180 0.136640 -0.122330 
1.348860 17.219100 -9.072070 4.453415 -8.104908 -4.923663 -14.406060 12.418577 3.613462 -5.006061 -1.925249 -7.094309 -17.239391 8.931108 16.484705 0.048680 5.019956 2.750489 0.159130 0.085800 0.067770 18.939251 -12.362141 1.896860 -10.872224 0.268000 -16.165136 -3.190019 -5.806883 32.971807 -0.443817 -4.693771 2.606760 -0.010280 -0.067310 0.011760 -5.530137 1.346494 -7.055340 37.609274 -11.267365 9.977089 -35.800481 -2.278858 10.636319 13.454739 -5.716628 -11.413100 -14.026076 6.901219 53.373147 -3.469780 -1.812980 -8.641440 -18.532248 -1.436185 2.350465 -46.533292 7.436497 -11.503633 -17.397403 -28.811795 1.195662 -3.289806 3.042008 0.487640 -0.168810 0.127280 -0.035840 -9.591699 6.312716 9.875049 -0.831632 -6.563401 -3.651575 -8.112993 40.668103 -0.040181 2.057588 -1.848776 -0.070960 0.192560 0.153320 -0.127640 
1.354250 17.202540 -9.062750 4.781658 -7.479767 -5.231376 -14.422129 12.430037 3.606809 -5.532689 -1.814911 -6.544250 -16.777340 8.821630 16.516347 0.029620 4.995374 2.752716 0.149050 0.071500 0.046390 18.933295 -12.332279 1.873719 -11.644519 0.293292 -16.541297 -2.732370 -6.246907 34.334652 -0.468340 -4.885514 2.528127 -0.013280 -0.066420 -0.007520 -5.508631 1.230766 -7.043717 37.377360 -11.313881 9.964149 -35.727861 -2.160056 10.685839 13.123820 -6.134655 -12.086883 -15.659403 7.212842 53.522428 -1.872010 -2.801160 -9.053240 -18.157321 -1.740132 2.386116 -47.199744 7.524206 -11.848242 -17.218348 -29.141325 1.068320 -3.275426 3.023084 0.514260 -0.192900 0.124310 -0.041780 -9.240482 7.095448 10.527981 -1.994665 -5.789927 -2.607643 -6.863478 31.157246 0.719023 2.095154 -1.658262 -0.086990 0.208750 0.171580 -0.129010 
1.366200 17.195380 -9.047410 4.926108 -6.721588 -5.456146 -14.433901 12.430780 3.599635 -6.033659 -1.861605 -6.308318 -16.095210 8.690623 16.946189 0.025317 4.955164 2.765486 0.154340 0.077360 0.044770 18.927697 -12.324596 1.849550 -12.441278 0.134348 -16.373878 -1.928665 -6.767902 34.708190 -0.490463 -4.998801 2.486414 -0.014980 -0.072630 -0.016440 -5.493419 1.165489 -7.024728 37.638890 -11.451955 9.713406 -35.970849 -2.079021 10.794245 12.994761 -6.301830 -12.630263 -16.652598 7.184769 53.854534 -1.111730 -3.588390 -9.420310 -18.210722 -2.020925 2.375414 -47.406777 7.755000 -12.196944 -16.967544 -29.547414 0.984646 -3.251103 3.015936 0.528150 -0.210790 0.132650 -0.039820 -8.880936 7.681200 11.232927 -2.914111 -4.841303 -1.461170 -5.144058 22.820165 1.072387 2.148705 -1.438104 -0.085250 0.217910 0.169340 -0.125470 
